<svg width="473" height="60" viewBox="0 0 473 60" fill="none" xmlns="http://www.w3.org/2000/svg">
<path d="M170.908 42.4444H167.353L150.464 14H157.575L168.242 31.3333H170.019L179.797 14H187.353L170.908 42.4444Z" fill="#0C1374"/>
<path d="M179.797 39.7778V45.5556H187.797V26L179.797 39.7778Z" fill="#0C1374"/>
<path d="M158.464 40.2221V45.9999H150.464V26.4443L158.464 40.2221Z" fill="#0C1374"/>
<path d="M256.741 46C254.789 46 253.237 45.84 252.085 45.52C250.933 45.168 250.101 44.512 249.589 43.552C249.109 42.56 248.869 41.136 248.869 39.28V13.936H256.165V37.36C256.165 38.48 256.389 39.216 256.837 39.568C257.285 39.888 258.117 40.048 259.333 40.048H261.397V46H256.741ZM277.931 46.576C275.371 46.576 273.099 46.08 271.115 45.088C269.163 44.064 267.627 42.608 266.507 40.72C265.419 38.832 264.875 36.576 264.875 33.952C264.875 31.424 265.451 29.232 266.603 27.376C267.787 25.52 269.339 24.08 271.259 23.056C273.211 22.032 275.339 21.52 277.643 21.52C280.267 21.52 282.507 22.144 284.363 23.392C286.251 24.608 287.675 26.304 288.635 28.48C289.595 30.624 289.995 33.104 289.835 35.92H272.219C272.347 37.584 272.955 38.832 274.043 39.664C275.163 40.496 276.395 40.912 277.739 40.912C278.859 40.912 279.819 40.752 280.619 40.432C281.451 40.08 282.091 39.648 282.539 39.136L288.347 41.248C287.099 43.072 285.531 44.416 283.643 45.28C281.787 46.144 279.883 46.576 277.931 46.576ZM272.219 31.6H283.067C283.035 30.064 282.507 28.912 281.483 28.144C280.459 27.344 279.243 26.944 277.835 26.944C276.459 26.944 275.227 27.312 274.139 28.048C273.083 28.784 272.443 29.968 272.219 31.6ZM306.414 46.576C303.79 46.576 301.566 46.048 299.742 44.992C297.95 43.936 296.574 42.464 295.614 40.576C294.686 38.656 294.222 36.448 294.222 33.952C294.222 31.456 294.734 29.28 295.758 27.424C296.782 25.536 298.206 24.08 300.03 23.056C301.886 22.032 304.014 21.52 306.414 21.52C307.79 21.52 309.15 21.712 310.494 22.096C311.87 22.48 313.134 23.136 314.286 24.064C315.47 24.96 316.43 26.192 317.166 27.76L311.07 29.968C310.686 28.944 310.11 28.224 309.342 27.808C308.606 27.392 307.774 27.184 306.846 27.184C305.982 27.184 305.15 27.408 304.35 27.856C303.55 28.272 302.894 28.976 302.382 29.968C301.902 30.96 301.662 32.304 301.662 34C301.662 35.728 301.918 37.104 302.43 38.128C302.942 39.12 303.582 39.84 304.35 40.288C305.15 40.704 305.982 40.912 306.846 40.912C307.87 40.912 308.734 40.72 309.438 40.336C310.142 39.92 310.702 39.36 311.118 38.656L317.07 40.816C316.27 42.256 315.278 43.408 314.094 44.272C312.91 45.104 311.646 45.696 310.302 46.048C308.99 46.4 307.694 46.576 306.414 46.576ZM332.6 46C330.648 46 329.096 45.84 327.944 45.52C326.792 45.168 325.96 44.512 325.448 43.552C324.968 42.56 324.728 41.136 324.728 39.28V27.76H320.792V22.192H324.728V16.24H332.024V22.192H337.208V27.76H332.024V37.36C332.024 38.48 332.232 39.216 332.648 39.568C333.096 39.888 333.912 40.048 335.096 40.048H337.208V46H332.6ZM349.875 18.256C348.691 18.256 347.667 17.84 346.803 17.008C345.971 16.144 345.555 15.12 345.555 13.936C345.555 12.72 345.971 11.696 346.803 10.864C347.667 10.032 348.691 9.616 349.875 9.616C351.091 9.616 352.115 10.032 352.947 10.864C353.779 11.696 354.195 12.72 354.195 13.936C354.195 15.12 353.779 16.144 352.947 17.008C352.115 17.84 351.091 18.256 349.875 18.256ZM346.179 46V27.76H341.667V22.192H353.523V46H346.179ZM366.312 46L357.816 22.192H365.352L370.44 38.416L375.528 22.192H383.064L374.52 46H366.312ZM398.981 46.576C396.421 46.576 394.149 46.08 392.165 45.088C390.213 44.064 388.677 42.608 387.557 40.72C386.469 38.832 385.925 36.576 385.925 33.952C385.925 31.424 386.501 29.232 387.653 27.376C388.837 25.52 390.389 24.08 392.309 23.056C394.261 22.032 396.389 21.52 398.693 21.52C401.317 21.52 403.557 22.144 405.413 23.392C407.301 24.608 408.725 26.304 409.685 28.48C410.645 30.624 411.045 33.104 410.885 35.92H393.269C393.397 37.584 394.005 38.832 395.093 39.664C396.213 40.496 397.445 40.912 398.789 40.912C399.909 40.912 400.869 40.752 401.669 40.432C402.501 40.08 403.141 39.648 403.589 39.136L409.397 41.248C408.149 43.072 406.581 44.416 404.693 45.28C402.837 46.144 400.933 46.576 398.981 46.576ZM393.269 31.6H404.117C404.085 30.064 403.557 28.912 402.533 28.144C401.509 27.344 400.293 26.944 398.885 26.944C397.509 26.944 396.277 27.312 395.189 28.048C394.133 28.784 393.493 29.968 393.269 31.6ZM419.976 46.576C418.696 46.576 417.592 46.112 416.664 45.184C415.736 44.256 415.272 43.152 415.272 41.872C415.272 40.56 415.736 39.456 416.664 38.56C417.592 37.664 418.696 37.216 419.976 37.216C421.256 37.216 422.344 37.664 423.24 38.56C424.168 39.456 424.632 40.56 424.632 41.872C424.632 43.152 424.168 44.256 423.24 45.184C422.344 46.112 421.256 46.576 419.976 46.576ZM437.312 18.256C436.128 18.256 435.104 17.84 434.24 17.008C433.408 16.144 432.992 15.12 432.992 13.936C432.992 12.72 433.408 11.696 434.24 10.864C435.104 10.032 436.128 9.616 437.312 9.616C438.528 9.616 439.552 10.032 440.384 10.864C441.216 11.696 441.632 12.72 441.632 13.936C441.632 15.12 441.216 16.144 440.384 17.008C439.552 17.84 438.528 18.256 437.312 18.256ZM433.616 46V27.76H429.104V22.192H440.96V46H433.616ZM459.461 46.576C456.901 46.576 454.629 46.08 452.645 45.088C450.693 44.064 449.157 42.608 448.037 40.72C446.949 38.832 446.405 36.576 446.405 33.952C446.405 31.424 446.981 29.232 448.133 27.376C449.317 25.52 450.869 24.08 452.789 23.056C454.741 22.032 456.869 21.52 459.173 21.52C461.797 21.52 464.037 22.144 465.893 23.392C467.781 24.608 469.205 26.304 470.165 28.48C471.125 30.624 471.525 33.104 471.365 35.92H453.749C453.877 37.584 454.485 38.832 455.573 39.664C456.693 40.496 457.925 40.912 459.269 40.912C460.389 40.912 461.349 40.752 462.149 40.432C462.981 40.08 463.621 39.648 464.069 39.136L469.877 41.248C468.629 43.072 467.061 44.416 465.173 45.28C463.317 46.144 461.413 46.576 459.461 46.576ZM453.749 31.6H464.597C464.565 30.064 464.037 28.912 463.013 28.144C461.989 27.344 460.773 26.944 459.365 26.944C457.989 26.944 456.757 27.312 455.669 28.048C454.613 28.784 453.973 29.968 453.749 31.6Z" fill="#0C1374"/>
<path d="M79.8239 46.576C78.3199 46.576 76.9439 46.288 75.6959 45.712C74.4479 45.136 73.4559 44.336 72.7199 43.312C71.9839 42.256 71.6159 41.008 71.6159 39.568C71.6159 37.616 72.2879 36.064 73.6319 34.912C75.0079 33.76 76.8799 32.896 79.2479 32.32C81.6159 31.744 84.3359 31.344 87.4079 31.12C87.4079 29.424 87.1359 28.224 86.5919 27.52C86.0479 26.816 84.9919 26.464 83.4239 26.464C82.4319 26.464 81.5519 26.704 80.7839 27.184C80.0479 27.632 79.5519 28.336 79.2959 29.296L73.1519 27.088C73.9519 25.488 75.2799 24.16 77.1359 23.104C79.0239 22.048 81.3279 21.52 84.0479 21.52C87.4399 21.52 90.0479 22.272 91.8719 23.776C93.6959 25.28 94.6079 27.84 94.6079 31.456V36.688C94.6079 37.712 94.6399 38.816 94.7039 40C94.7679 41.184 94.8639 42.304 94.9919 43.36C95.1199 44.416 95.2639 45.296 95.4239 46H88.6559L87.7919 43.12C86.8959 44.368 85.7599 45.264 84.3839 45.808C83.0399 46.32 81.5199 46.576 79.8239 46.576ZM82.5119 41.584C83.9519 41.584 85.1519 41.2 86.1119 40.432C87.0719 39.664 87.5519 38.192 87.5519 36.016V35.44C85.0239 35.664 82.9919 36.016 81.4559 36.496C79.9199 36.944 79.1519 37.792 79.1519 39.04C79.1519 39.808 79.4719 40.432 80.1119 40.912C80.7519 41.36 81.5519 41.584 82.5119 41.584ZM111.587 46C109.635 46 108.083 45.84 106.931 45.52C105.779 45.168 104.947 44.512 104.435 43.552C103.955 42.56 103.715 41.136 103.715 39.28V27.76H99.7791V22.192H103.715V16.24H111.011V22.192H116.195V27.76H111.011V37.36C111.011 38.48 111.219 39.216 111.635 39.568C112.083 39.888 112.899 40.048 114.083 40.048H116.195V46H111.587ZM133.711 46.576C131.151 46.576 128.879 46.08 126.895 45.088C124.943 44.064 123.407 42.608 122.287 40.72C121.199 38.832 120.655 36.576 120.655 33.952C120.655 31.424 121.231 29.232 122.383 27.376C123.567 25.52 125.119 24.08 127.039 23.056C128.991 22.032 131.119 21.52 133.423 21.52C136.047 21.52 138.287 22.144 140.143 23.392C142.031 24.608 143.455 26.304 144.415 28.48C145.375 30.624 145.775 33.104 145.615 35.92H127.999C128.127 37.584 128.735 38.832 129.823 39.664C130.943 40.496 132.175 40.912 133.519 40.912C134.639 40.912 135.599 40.752 136.399 40.432C137.231 40.08 137.871 39.648 138.319 39.136L144.127 41.248C142.879 43.072 141.311 44.416 139.423 45.28C137.567 46.144 135.663 46.576 133.711 46.576ZM127.999 31.6H138.847C138.815 30.064 138.287 28.912 137.263 28.144C136.239 27.344 135.023 26.944 133.615 26.944C132.239 26.944 131.007 27.312 129.919 28.048C128.863 28.784 128.223 29.968 127.999 31.6Z" fill="#0C1374"/>
<path d="M39 46.064V14H51.336C54.12 14 56.6 14.272 58.776 14.816C60.984 15.36 62.712 16.352 63.96 17.792C65.24 19.232 65.88 21.28 65.88 23.936C65.88 25.152 65.656 26.368 65.208 27.584C64.76 28.768 63.976 29.856 62.856 30.848C61.768 31.84 60.2 32.608 58.152 33.152L67.464 46.064H58.68L49.992 33.968H46.584V46.064H39ZM39 27.632H51.576C53.368 27.632 54.856 27.408 56.04 26.96C57.256 26.48 57.864 25.504 57.864 24.032C57.864 22.528 57.256 21.552 56.04 21.104C54.856 20.624 53.368 20.384 51.576 20.384H39V27.632Z" fill="#0C1374"/>
<path d="M218.797 45.064V13H243.469V19.672H218.797V25.24H243.469V31.912H218.797V38.392H243.469V45.064H218.797Z" fill="#0C1374"/>
<path d="M193.917 53.728V48.448H195.357C196.445 48.448 197.261 48.4 197.805 48.304C198.349 48.208 198.765 47.968 199.053 47.584C199.373 47.232 199.661 46.656 199.917 45.856L190.797 22.192H198.621L203.277 37.072L207.837 22.192H215.661L206.541 46C205.773 48.016 204.989 49.584 204.189 50.704C203.421 51.824 202.429 52.608 201.213 53.056C199.997 53.504 198.349 53.728 196.269 53.728H193.917Z" fill="#0C1374"/>
<path d="M35.6809 25.3796L49.4426 24.2469C49.8504 24.2133 49.8576 23.6188 49.4507 23.5754L37.7421 22.3263C37.6053 22.3117 37.4911 22.2154 37.4534 22.0831L31.466 1.01845C31.3761 0.702278 30.9331 0.688353 30.8236 0.99826L23.7736 20.9415C23.726 21.0763 23.5986 21.1663 23.4556 21.1663H1.0598C0.731003 21.1663 0.596565 21.5888 0.864891 21.7788L19.3477 34.8677C19.4618 34.9485 19.5142 35.0914 19.4794 35.2269L14.9232 52.949C14.8407 53.2697 15.2216 53.5047 15.4713 53.2872L28.3073 42.1075C28.6117 41.8424 28.2779 41.3636 27.9239 41.5574L21.2762 45.1968C21.001 45.3474 20.6873 45.0738 20.7991 44.7807L25.2698 33.062C25.3217 32.9258 25.2803 32.7716 25.167 32.6798L18.1982 27.0314C17.9513 26.8313 18.0928 26.4321 18.4105 26.4321H27.7013C27.8515 26.4321 27.9836 26.3328 28.0253 26.1885L30.9118 16.1973C31 15.8919 31.4232 15.867 31.5466 16.16L35.3424 25.1743C35.399 25.3087 35.5355 25.3915 35.6809 25.3796Z" fill="#F1BE41"/>
</svg>
