<?xml version="1.0" encoding="UTF-8"?>
<svg xmlns="http://www.w3.org/2000/svg" xmlns:xlink="http://www.w3.org/1999/xlink" width="1200px" height="630px" viewBox="0 0 1200 630" version="1.1">
<g id="surface1">
<path style=" stroke:none;fill-rule:nonzero;fill:rgb(4.705882%,7.45098%,45.490196%);fill-opacity:1;" d="M 433.59375 445.667969 L 424.574219 445.667969 L 381.726562 147 L 399.765625 147 L 426.828125 329 L 431.335938 329 L 456.144531 147 L 475.3125 147 Z M 433.59375 445.667969 "/>
<path style=" stroke:none;fill-rule:nonzero;fill:rgb(4.705882%,7.45098%,45.490196%);fill-opacity:1;" d="M 456.144531 417.667969 L 456.144531 478.332031 L 476.441406 478.332031 L 476.441406 273 Z M 456.144531 417.667969 "/>
<path style=" stroke:none;fill-rule:nonzero;fill:rgb(4.705882%,7.45098%,45.490196%);fill-opacity:1;" d="M 402.023438 422.332031 L 402.023438 483 L 381.726562 483 L 381.726562 277.664062 Z M 402.023438 422.332031 "/>
<path style=" stroke:none;fill-rule:nonzero;fill:rgb(4.705882%,7.45098%,45.490196%);fill-opacity:1;" d="M 651.351562 483 C 646.398438 483 642.460938 481.320312 639.539062 477.960938 C 636.617188 474.265625 634.503906 467.375 633.207031 457.296875 C 631.988281 446.878906 631.378906 431.929688 631.378906 412.441406 L 631.378906 146.328125 L 649.890625 146.328125 L 649.890625 392.28125 C 649.890625 404.039062 650.457031 411.769531 651.59375 415.464844 C 652.730469 418.824219 654.84375 420.503906 657.925781 420.503906 L 663.164062 420.503906 L 663.164062 483 Z M 705.109375 489.046875 C 698.617188 489.046875 692.851562 483.839844 687.816406 473.425781 C 682.867188 462.671875 678.96875 447.382812 676.128906 427.558594 C 673.367188 407.734375 671.988281 384.046875 671.988281 356.496094 C 671.988281 329.953125 673.449219 306.9375 676.371094 287.449219 C 679.375 267.960938 683.3125 252.839844 688.183594 242.089844 C 693.136719 231.335938 698.535156 225.960938 704.378906 225.960938 C 711.035156 225.960938 716.71875 232.511719 721.429688 245.617188 C 726.21875 258.382812 729.832031 276.191406 732.265625 299.039062 C 734.703125 321.550781 735.714844 347.59375 735.3125 377.160156 L 690.617188 377.160156 C 690.945312 394.632812 692.484375 407.734375 695.246094 416.472656 C 698.089844 425.207031 701.214844 429.574219 704.625 429.574219 C 707.464844 429.574219 709.898438 427.894531 711.929688 424.535156 C 714.039062 420.839844 715.664062 416.304688 716.800781 410.929688 L 731.535156 433.105469 C 728.371094 452.257812 724.390625 466.367188 719.601562 475.441406 C 714.894531 484.511719 710.0625 489.046875 705.109375 489.046875 Z M 690.617188 331.800781 L 718.140625 331.800781 C 718.058594 315.671875 716.71875 303.574219 714.121094 295.511719 C 711.523438 287.113281 708.4375 282.910156 704.867188 282.910156 C 701.375 282.910156 698.25 286.777344 695.488281 294.503906 C 692.8125 302.230469 691.1875 314.664062 690.617188 331.800781 Z M 777.371094 489.046875 C 770.714844 489.046875 765.074219 483.503906 760.445312 472.414062 C 755.898438 461.328125 752.40625 445.871094 749.972656 426.046875 C 747.617188 405.886719 746.441406 382.703125 746.441406 356.496094 C 746.441406 330.289062 747.738281 307.441406 750.335938 287.953125 C 752.933594 268.128906 756.546875 252.839844 761.175781 242.089844 C 765.882812 231.335938 771.28125 225.960938 777.371094 225.960938 C 780.863281 225.960938 784.3125 227.976562 787.722656 232.007812 C 791.214844 236.039062 794.421875 242.929688 797.34375 252.671875 C 800.347656 262.078125 802.78125 275.015625 804.648438 291.480469 L 789.183594 314.664062 C 788.210938 303.910156 786.75 296.351562 784.800781 291.984375 C 782.933594 287.617188 780.820312 285.433594 778.46875 285.433594 C 776.277344 285.433594 774.164062 287.785156 772.136719 292.488281 C 770.105469 296.855469 768.441406 304.246094 767.140625 314.664062 C 765.925781 325.078125 765.316406 339.191406 765.316406 357 C 765.316406 375.144531 765.964844 389.59375 767.265625 400.34375 C 768.5625 410.761719 770.1875 418.320312 772.136719 423.023438 C 774.164062 427.390625 776.277344 429.574219 778.46875 429.574219 C 781.066406 429.574219 783.257812 427.558594 785.042969 423.527344 C 786.828125 419.160156 788.25 413.28125 789.304688 405.886719 L 804.40625 428.566406 C 802.375 443.6875 799.859375 455.785156 796.855469 464.855469 C 793.851562 473.59375 790.644531 479.808594 787.234375 483.503906 C 783.90625 487.199219 780.617188 489.046875 777.371094 489.046875 Z M 843.804688 483 C 838.851562 483 834.914062 481.320312 831.992188 477.960938 C 829.070312 474.265625 826.960938 467.375 825.660156 457.296875 C 824.441406 446.878906 823.835938 431.929688 823.835938 412.441406 L 823.835938 291.480469 L 813.847656 291.480469 L 813.847656 233.015625 L 823.835938 233.015625 L 823.835938 170.519531 L 842.34375 170.519531 L 842.34375 233.015625 L 855.496094 233.015625 L 855.496094 291.480469 L 842.34375 291.480469 L 842.34375 392.28125 C 842.34375 404.039062 842.871094 411.769531 843.925781 415.464844 C 845.0625 418.824219 847.132812 420.503906 850.136719 420.503906 L 855.496094 420.503906 L 855.496094 483 Z M 887.632812 191.6875 C 884.628906 191.6875 882.03125 187.320312 879.839844 178.585938 C 877.726562 169.511719 876.671875 158.761719 876.671875 146.328125 C 876.671875 133.558594 877.726562 122.808594 879.839844 114.070312 C 882.03125 105.335938 884.628906 100.96875 887.632812 100.96875 C 890.71875 100.96875 893.316406 105.335938 895.425781 114.070312 C 897.535156 122.808594 898.59375 133.558594 898.59375 146.328125 C 898.59375 158.761719 897.535156 169.511719 895.425781 178.585938 C 893.316406 187.320312 890.71875 191.6875 887.632812 191.6875 Z M 878.253906 483 L 878.253906 291.480469 L 866.808594 291.480469 L 866.808594 233.015625 L 896.886719 233.015625 L 896.886719 483 Z M 929.332031 483 L 907.777344 233.015625 L 926.898438 233.015625 L 939.804688 403.367188 L 952.714844 233.015625 L 971.832031 233.015625 L 950.15625 483 Z M 1012.214844 489.046875 C 1005.71875 489.046875 999.957031 483.839844 994.921875 473.425781 C 989.96875 462.671875 986.074219 447.382812 983.230469 427.558594 C 980.472656 407.734375 979.089844 384.046875 979.089844 356.496094 C 979.089844 329.953125 980.550781 306.9375 983.476562 287.449219 C 986.480469 267.960938 990.417969 252.839844 995.285156 242.089844 C 1000.238281 231.335938 1005.636719 225.960938 1011.484375 225.960938 C 1018.140625 225.960938 1023.824219 232.511719 1028.53125 245.617188 C 1033.320312 258.382812 1036.933594 276.191406 1039.371094 299.039062 C 1041.804688 321.550781 1042.820312 347.59375 1042.414062 377.160156 L 997.722656 377.160156 C 998.046875 394.632812 999.589844 407.734375 1002.351562 416.472656 C 1005.191406 425.207031 1008.316406 429.574219 1011.726562 429.574219 C 1014.566406 429.574219 1017.003906 427.894531 1019.035156 424.535156 C 1021.144531 420.839844 1022.769531 416.304688 1023.90625 410.929688 L 1038.640625 433.105469 C 1035.472656 452.257812 1031.496094 466.367188 1026.707031 475.441406 C 1021.996094 484.511719 1017.167969 489.046875 1012.214844 489.046875 Z M 997.722656 331.800781 L 1025.242188 331.800781 C 1025.164062 315.671875 1023.824219 303.574219 1021.226562 295.511719 C 1018.628906 287.113281 1015.542969 282.910156 1011.96875 282.910156 C 1008.480469 282.910156 1005.355469 286.777344 1002.59375 294.503906 C 999.914062 302.230469 998.289062 314.664062 997.722656 331.800781 Z M 1065.476562 489.046875 C 1062.230469 489.046875 1059.429688 484.175781 1057.074219 474.433594 C 1054.722656 464.6875 1053.542969 453.097656 1053.542969 439.65625 C 1053.542969 425.878906 1054.722656 414.289062 1057.074219 404.878906 C 1059.429688 395.472656 1062.230469 390.769531 1065.476562 390.769531 C 1068.726562 390.769531 1071.484375 395.472656 1073.757812 404.878906 C 1076.113281 414.289062 1077.289062 425.878906 1077.289062 439.65625 C 1077.289062 453.097656 1076.113281 464.6875 1073.757812 474.433594 C 1071.484375 484.175781 1068.726562 489.046875 1065.476562 489.046875 Z M 1109.460938 191.6875 C 1106.457031 191.6875 1103.859375 187.320312 1101.664062 178.585938 C 1099.554688 169.511719 1098.5 158.761719 1098.5 146.328125 C 1098.5 133.558594 1099.554688 122.808594 1101.664062 114.070312 C 1103.859375 105.335938 1106.457031 100.96875 1109.460938 100.96875 C 1112.542969 100.96875 1115.140625 105.335938 1117.253906 114.070312 C 1119.363281 122.808594 1120.417969 133.558594 1120.417969 146.328125 C 1120.417969 158.761719 1119.363281 169.511719 1117.253906 178.585938 C 1115.140625 187.320312 1112.542969 191.6875 1109.460938 191.6875 Z M 1100.082031 483 L 1100.082031 291.480469 L 1088.636719 291.480469 L 1088.636719 233.015625 L 1118.714844 233.015625 L 1118.714844 483 Z M 1165.652344 489.046875 C 1159.15625 489.046875 1153.394531 483.839844 1148.359375 473.425781 C 1143.40625 462.671875 1139.511719 447.382812 1136.667969 427.558594 C 1133.910156 407.734375 1132.527344 384.046875 1132.527344 356.496094 C 1132.527344 329.953125 1133.988281 306.9375 1136.914062 287.449219 C 1139.917969 267.960938 1143.855469 252.839844 1148.726562 242.089844 C 1153.675781 231.335938 1159.074219 225.960938 1164.921875 225.960938 C 1171.578125 225.960938 1177.261719 232.511719 1181.96875 245.617188 C 1186.757812 258.382812 1190.371094 276.191406 1192.808594 299.039062 C 1195.242188 321.550781 1196.257812 347.59375 1195.851562 377.160156 L 1151.160156 377.160156 C 1151.484375 394.632812 1153.027344 407.734375 1155.789062 416.472656 C 1158.628906 425.207031 1161.753906 429.574219 1165.164062 429.574219 C 1168.007812 429.574219 1170.441406 427.894531 1172.472656 424.535156 C 1174.582031 420.839844 1176.207031 416.304688 1177.34375 410.929688 L 1192.078125 433.105469 C 1188.910156 452.257812 1184.933594 466.367188 1180.144531 475.441406 C 1175.433594 484.511719 1170.605469 489.046875 1165.652344 489.046875 Z M 1151.160156 331.800781 L 1178.679688 331.800781 C 1178.601562 315.671875 1177.261719 303.574219 1174.664062 295.511719 C 1172.066406 287.113281 1168.980469 282.910156 1165.40625 282.910156 C 1161.917969 282.910156 1158.792969 286.777344 1156.03125 294.503906 C 1153.351562 302.230469 1151.730469 314.664062 1151.160156 331.800781 Z M 1151.160156 331.800781 "/>
<path style=" stroke:none;fill-rule:nonzero;fill:rgb(4.705882%,7.45098%,45.490196%);fill-opacity:1;" d="M 202.511719 489.046875 C 198.699219 489.046875 195.207031 486.023438 192.039062 479.976562 C 188.875 473.929688 186.359375 465.527344 184.488281 454.777344 C 182.621094 443.6875 181.6875 430.585938 181.6875 415.464844 C 181.6875 394.96875 183.394531 378.671875 186.804688 366.574219 C 190.292969 354.480469 195.042969 345.40625 201.050781 339.359375 C 207.058594 333.3125 213.960938 329.113281 221.753906 326.761719 C 221.753906 308.953125 221.0625 296.351562 219.683594 288.960938 C 218.304688 281.566406 215.625 277.871094 211.644531 277.871094 C 209.128906 277.871094 206.898438 280.390625 204.949219 285.433594 C 203.082031 290.136719 201.824219 297.527344 201.171875 307.609375 L 185.585938 284.425781 C 187.617188 267.625 190.984375 253.679688 195.695312 242.59375 C 200.484375 231.503906 206.328125 225.960938 213.230469 225.960938 C 221.835938 225.960938 228.453125 233.855469 233.078125 249.648438 C 237.707031 265.441406 240.019531 292.320312 240.019531 330.289062 L 240.019531 385.222656 C 240.019531 395.976562 240.101562 407.566406 240.261719 420 C 240.425781 432.433594 240.667969 444.191406 240.996094 455.28125 C 241.320312 466.367188 241.683594 475.609375 242.089844 483 L 224.917969 483 L 222.726562 452.761719 C 220.453125 465.863281 217.574219 475.273438 214.082031 480.984375 C 210.671875 486.359375 206.816406 489.046875 202.511719 489.046875 Z M 209.332031 436.632812 C 212.984375 436.632812 216.03125 432.601562 218.464844 424.535156 C 220.902344 416.472656 222.117188 401.015625 222.117188 378.167969 L 222.117188 372.121094 C 215.707031 374.472656 210.550781 378.167969 206.652344 383.207031 C 202.757812 387.910156 200.808594 396.816406 200.808594 409.921875 C 200.808594 417.984375 201.621094 424.535156 203.242188 429.574219 C 204.867188 434.28125 206.898438 436.632812 209.332031 436.632812 Z M 283.097656 483 C 278.144531 483 274.207031 481.320312 271.285156 477.960938 C 268.359375 474.265625 266.25 467.375 264.953125 457.296875 C 263.734375 446.878906 263.125 431.929688 263.125 412.441406 L 263.125 291.480469 L 253.140625 291.480469 L 253.140625 233.015625 L 263.125 233.015625 L 263.125 170.519531 L 281.632812 170.519531 L 281.632812 233.015625 L 294.785156 233.015625 L 294.785156 291.480469 L 281.632812 291.480469 L 281.632812 392.28125 C 281.632812 404.039062 282.164062 411.769531 283.21875 415.464844 C 284.355469 418.824219 286.425781 420.503906 289.429688 420.503906 L 294.785156 420.503906 L 294.785156 483 Z M 339.222656 489.046875 C 332.730469 489.046875 326.964844 483.839844 321.933594 473.425781 C 316.980469 462.671875 313.082031 447.382812 310.242188 427.558594 C 307.480469 407.734375 306.101562 384.046875 306.101562 356.496094 C 306.101562 329.953125 307.5625 306.9375 310.484375 287.449219 C 313.488281 267.960938 317.425781 252.839844 322.296875 242.089844 C 327.25 231.335938 332.648438 225.960938 338.492188 225.960938 C 345.152344 225.960938 350.832031 232.511719 355.542969 245.617188 C 360.332031 258.382812 363.945312 276.191406 366.378906 299.039062 C 368.816406 321.550781 369.832031 347.59375 369.425781 377.160156 L 324.734375 377.160156 C 325.058594 394.632812 326.601562 407.734375 329.359375 416.472656 C 332.203125 425.207031 335.328125 429.574219 338.738281 429.574219 C 341.578125 429.574219 344.015625 427.894531 346.042969 424.535156 C 348.15625 420.839844 349.777344 416.304688 350.914062 410.929688 L 365.648438 433.105469 C 362.484375 452.257812 358.503906 466.367188 353.714844 475.441406 C 349.007812 484.511719 344.175781 489.046875 339.222656 489.046875 Z M 324.734375 331.800781 L 352.253906 331.800781 C 352.171875 315.671875 350.832031 303.574219 348.234375 295.511719 C 345.636719 287.113281 342.554688 282.910156 338.980469 282.910156 C 335.488281 282.910156 332.363281 286.777344 329.605469 294.503906 C 326.925781 302.230469 325.300781 314.664062 324.734375 331.800781 Z M 324.734375 331.800781 "/>
<path style=" stroke:none;fill-rule:nonzero;fill:rgb(4.705882%,7.45098%,45.490196%);fill-opacity:1;" d="M 98.941406 483.671875 L 98.941406 147 L 130.238281 147 C 137.300781 147 143.59375 149.855469 149.113281 155.566406 C 154.714844 161.28125 159.101562 171.695312 162.265625 186.816406 C 165.515625 201.9375 167.136719 223.441406 167.136719 251.328125 C 167.136719 264.097656 166.570312 276.863281 165.433594 289.632812 C 164.296875 302.0625 162.308594 313.488281 159.464844 323.902344 C 156.707031 334.320312 152.726562 342.382812 147.53125 348.097656 L 171.15625 483.671875 L 148.871094 483.671875 L 126.828125 356.664062 L 118.183594 356.664062 L 118.183594 483.671875 Z M 98.941406 290.136719 L 130.847656 290.136719 C 135.394531 290.136719 139.167969 287.785156 142.171875 283.078125 C 145.257812 278.039062 146.800781 267.792969 146.800781 252.335938 C 146.800781 236.542969 145.257812 226.296875 142.171875 221.59375 C 139.167969 216.550781 135.394531 214.03125 130.847656 214.03125 L 98.941406 214.03125 Z M 98.941406 290.136719 "/>
<path style=" stroke:none;fill-rule:nonzero;fill:rgb(4.705882%,7.45098%,45.490196%);fill-opacity:1;" d="M 555.085938 473.171875 L 555.085938 136.5 L 617.679688 136.5 L 617.679688 206.554688 L 555.085938 206.554688 L 555.085938 265.019531 L 617.679688 265.019531 L 617.679688 335.074219 L 555.085938 335.074219 L 555.085938 403.117188 L 617.679688 403.117188 L 617.679688 473.171875 Z M 555.085938 473.171875 "/>
<path style=" stroke:none;fill-rule:nonzero;fill:rgb(4.705882%,7.45098%,45.490196%);fill-opacity:1;" d="M 491.96875 564.144531 L 491.96875 508.703125 L 495.621094 508.703125 C 498.378906 508.703125 500.449219 508.199219 501.832031 507.191406 C 503.210938 506.183594 504.265625 503.664062 504.996094 499.632812 C 505.808594 495.9375 506.539062 489.886719 507.1875 481.488281 L 484.050781 233.015625 L 503.902344 233.015625 L 515.714844 389.257812 L 527.28125 233.015625 L 547.132812 233.015625 L 523.992188 483 C 522.046875 504.167969 520.058594 520.632812 518.027344 532.390625 C 516.078125 544.152344 513.5625 552.382812 510.476562 557.089844 C 507.390625 561.792969 503.210938 564.144531 497.933594 564.144531 Z M 491.96875 564.144531 "/>
<path style=" stroke:none;fill-rule:nonzero;fill:rgb(94.509804%,74.509804%,25.490196%);fill-opacity:1;" d="M 90.523438 266.484375 L 125.4375 254.59375 C 126.46875 254.238281 126.488281 247.996094 125.457031 247.542969 L 95.75 234.425781 C 95.40625 234.273438 95.113281 233.261719 95.019531 231.871094 L 79.828125 10.695312 C 79.601562 7.375 78.476562 7.226562 78.199219 10.480469 L 60.3125 219.886719 C 60.191406 221.300781 59.871094 222.246094 59.507812 222.246094 L 2.6875 222.246094 C 1.855469 222.246094 1.511719 226.683594 2.195312 228.675781 L 49.085938 366.109375 C 49.375 366.960938 49.507812 368.460938 49.417969 369.882812 L 37.859375 555.964844 C 37.652344 559.332031 38.617188 561.800781 39.25 559.515625 L 71.816406 442.128906 C 72.585938 439.34375 71.742188 434.316406 70.84375 436.351562 L 53.976562 474.566406 C 53.28125 476.148438 52.484375 473.273438 52.765625 470.199219 L 64.109375 347.152344 C 64.242188 345.722656 64.136719 344.101562 63.847656 343.136719 L 46.167969 283.828125 C 45.542969 281.730469 45.902344 277.535156 46.707031 277.535156 L 70.277344 277.535156 C 70.660156 277.535156 70.996094 276.496094 71.101562 274.980469 L 78.421875 170.070312 C 78.648438 166.863281 79.71875 166.601562 80.035156 169.679688 L 89.664062 264.332031 C 89.808594 265.742188 90.152344 266.609375 90.523438 266.484375 Z M 90.523438 266.484375 "/>
</g>
</svg>
